<?xml version="1.0" encoding="utf-8"?>
<!-- Generator: Adobe Illustrator 23.0.3, SVG Export Plug-In . SVG Version: 6.00 Build 0)  -->
<svg version="1.1" id="Layer_1" xmlns="http://www.w3.org/2000/svg" xmlns:xlink="http://www.w3.org/1999/xlink" x="0px" y="0px"
	 viewBox="0 0 1440 852" style="enable-background:new 0 0 1440 852;" xml:space="preserve">
<style type="text/css">
	.st0{fill:#C4C4C4;filter:url(#Adobe_OpacityMaskFilter);}
	.st1{mask:url(#mask0_301_185_1_);}
	.st2{fill:url(#SVGID_1_);}
	.st3{opacity:0.2;fill:none;enable-background:new    ;}
	.st4{fill:#172A21;}
	.st5{fill:#12211A;}
	.st6{fill:#0E1F17;}
	.st7{fill:#09140F;}
	.st8{fill:none;stroke:url(#SVGID_2_);stroke-width:2;stroke-linecap:square;}
	.st9{fill:url(#SVGID_3_);}
	.st10{fill:#5374E9;}
	.st11{fill:#6C8DFF;}
	.st12{fill-rule:evenodd;clip-rule:evenodd;fill:#7CAEF8;}
	.st13{fill:#6BCD49;}
	.st14{fill-rule:evenodd;clip-rule:evenodd;fill:#C9F87C;}
	.st15{fill:#F39321;}
	.st16{fill:#F3A141;}
	.st17{fill-rule:evenodd;clip-rule:evenodd;fill:#F8C67C;}
	.st18{fill:#5EBA3F;}
	.st19{fill:none;stroke:url(#SVGID_4_);stroke-width:2;stroke-linecap:square;}
	.st20{opacity:0.1;}
	.st21{fill:#BCDC5B;}
	.st22{opacity:0.2;}
</style>
<defs>
	<filter id="Adobe_OpacityMaskFilter" filterUnits="userSpaceOnUse" x="-182" y="-80" width="1889" height="1072">
		<feColorMatrix  type="matrix" values="1 0 0 0 0  0 1 0 0 0  0 0 1 0 0  0 0 0 1 0"/>
	</filter>
</defs>
<mask maskUnits="userSpaceOnUse" x="-182" y="-80" width="1889" height="1072" id="mask0_301_185_1_">
	<rect y="0" class="st0" width="1440" height="852"/>
</mask>
<g class="st1">
	
		<linearGradient id="SVGID_1_" gradientUnits="userSpaceOnUse" x1="410.0269" y1="1098.4954" x2="999.3289" y2="-236.2976" gradientTransform="matrix(1 0 0 -1 0 852.3937)">
		<stop  offset="0" style="stop-color:#395C4D"/>
		<stop  offset="1" style="stop-color:#132D1F"/>
	</linearGradient>
	<rect y="-80" class="st2" width="1440" height="1072"/>
	<rect y="-80" class="st3" width="1440" height="1072"/>
	<path class="st4" d="M174.5,545L-182,852h1207L174.5,545z"/>
	<path class="st5" d="M69,636l-251,216h849.9L69,636z"/>
	<path class="st6" d="M1515.4,614L1707,852h-648.7L1515.4,614z"/>
	<path class="st7" d="M1572.1,684.5L1707,852h-456.8L1572.1,684.5z"/>
	
		<linearGradient id="SVGID_2_" gradientUnits="userSpaceOnUse" x1="-171.388" y1="570.5173" x2="959.112" y2="-41.4827" gradientTransform="matrix(1 0 0 -1 0 852.3937)">
		<stop  offset="0" style="stop-color:#FFFFFF;stop-opacity:0.2"/>
		<stop  offset="1" style="stop-color:#FFFFFF;stop-opacity:0"/>
	</linearGradient>
	<path class="st8" d="M1015.5,852L192,551"/>
	
		<linearGradient id="SVGID_3_" gradientUnits="userSpaceOnUse" x1="-48.7052" y1="154.8687" x2="-48.7052" y2="-27.2653" gradientTransform="matrix(1 0 0 -1 0 852.3937)">
		<stop  offset="0" style="stop-color:#89F1FF"/>
		<stop  offset="1" style="stop-color:#6292DB"/>
	</linearGradient>
	<path class="st9" d="M-110,697.5V852c39.5,9.9,72.1,18.1,110.3,27.7l12.3-78.1L0.3,723.5l-53.5-23.1L-110,697.5z"/>
	<path class="st10" d="M0.3,394.6v305.3l41.1,23.2l56.9,7.4L110.7,490l-12.3-70.4l-49-24.6L0.3,394.6z"/>
	<path class="st11" d="M98.4,419.6v290.8l49-5.6l49-25c0-3.8,0-281.4,0-285.3l-49,0.4L98.4,419.6z"/>
	<path class="st12" d="M73.8,413.3c-26.7-6.8-65.2-16.6-73.5-18.7L98.4,370l0,0h0l98.1,24.6l-24.2,6.2
		c-26.7,6.8-65.6,16.7-73.9,18.8l0,0c0,0,0,0,0,0s0,0,0,0v0C94.8,418.6,85.4,416.3,73.8,413.3z"/>
	<path class="st13" d="M0.3,723.5v156.1c12.2-3.1,86.1-21.6,98.1-24.6l12.3-77.3l-12.3-77.3c-14.5,0.7-45,2.2-53.5,2.6
		C39.5,705.5,5.8,721,0.3,723.5L0.3,723.5z"/>
	<path class="st14" d="M0.3,669.9L0.3,669.9c28.9,9,38.8,12.1,45.7,14.3c9.5,2.9,13.6,4.2,52.3,16.3c-7.5,1.8-39.2,9.2-64.9,15.3
		c-15.4,3.6-28.7,6.8-33.1,7.8v0l0,0c-13.4-3.2-96.9-22.8-110.3-26L0.3,669.9L0.3,669.9z"/>
	<path class="st15" d="M196.5,723.5l12.3,78.1l-12.3,78.1c-11.9-3-86.1-21.6-98.1-24.6c0-8.6,0-146.1,0-154.7l49,1.8L196.5,723.5z"
		/>
	<path class="st16" d="M306.8,697.5V852c-39.5,9.9-72.1,18.1-110.3,27.7c0-8.7,0-147.5,0-156.1l55.2-23.1L306.8,697.5z"/>
	<path class="st17" d="M196.5,669.9L196.5,669.9C196.5,669.9,196.5,669.9,196.5,669.9C196.5,669.9,196.5,669.9,196.5,669.9
		l110.3,27.7c-13.4,3.2-96.9,22.8-110.3,26l0,0l-49-11.6l-49-11.6c4.3-1.3,8.3-2.6,12.2-3.8c14.7-4.6,26.9-8.4,37-11.5
		C191.6,671.4,196.3,669.9,196.5,669.9L196.5,669.9C196.4,669.9,196.1,670,196.5,669.9L196.5,669.9L196.5,669.9z"/>
	<path class="st10" d="M1493.8,613.8v159.1l-21.4,12.1l-29.7,3.8l-6.4-125.3l6.4-36.7l25.6-12.8L1493.8,613.8z"/>
	<path class="st16" d="M1442.6,626.8v151.6l-25.6-2.9l-25.6-13c0-2,0-146.7,0-148.7l25.6,0.2L1442.6,626.8z"/>
	<path class="st17" d="M1455.6,623.5c13.9-3.5,33.8-8.6,38.1-9.7l-51.1-12.8l0,0l-51.1,12.8l12.9,3.3c13.9,3.5,33.9,8.6,38.2,9.7
		l0,0l0,0l0,0l0,0C1444.5,626.4,1449.5,625.1,1455.6,623.5z"/>
	<path class="st13" d="M1493.8,785.3v81.4c-6.3-1.6-44.9-11.3-51.1-12.8l-6.4-40.3l6.4-40.3c7.5,0.4,23.4,1.1,27.9,1.4
		C1473.3,775.9,1490.9,784,1493.8,785.3L1493.8,785.3z"/>
	<path class="st18" d="M1391.5,785.3l-6.4,40.7l6.4,40.7c6.2-1.6,44.9-11.3,51.1-12.8c0-4.5,0-76.1,0-80.6l-25.6,0.9L1391.5,785.3z"
		/>
	<path class="st13" d="M1334,771.7v80.5c20.6,5.2,37.6,9.4,57.5,14.4c0-4.5,0-76.9,0-81.4l-28.8-12L1334,771.7z"/>
	<path class="st14" d="M1391.5,757.3l-57.5,14.4c7,1.6,50.5,11.9,57.5,13.6l0,0l0,0l0,0l0,0l25.6-6l25.6-6c-2.2-0.7-4.3-1.4-6.4-2
		c-7.7-2.4-14-4.4-19.3-6C1394.1,758.1,1391.6,757.3,1391.5,757.3L1391.5,757.3C1391.5,757.3,1391.7,757.4,1391.5,757.3
		L1391.5,757.3L1391.5,757.3L1391.5,757.3L1391.5,757.3L1391.5,757.3L1391.5,757.3z"/>
	
		<linearGradient id="SVGID_4_" gradientUnits="userSpaceOnUse" x1="872.3099" y1="220.5778" x2="1387.1719" y2="25.9268" gradientTransform="matrix(1 0 0 -1 0 852.3937)">
		<stop  offset="0" style="stop-color:#FFFFFF;stop-opacity:0.2"/>
		<stop  offset="1" style="stop-color:#FFFFFF;stop-opacity:0"/>
	</linearGradient>
	<path class="st19" d="M1059.5,852L1391,678.5"/>
	<g class="st20">
		<circle class="st21" cx="1383" cy="478" r="182"/>
	</g>
	<g class="st22">
		<circle class="st21" cx="194" cy="243" r="50"/>
	</g>
</g>
</svg>
