<svg width="30" height="30" viewBox="0 0 30 30" fill="none" xmlns="http://www.w3.org/2000/svg">
<g id="Iconly/Light-Outline/Show">
<g id="Show">
<path id="Fill 1" fill-rule="evenodd" clip-rule="evenodd" d="M14.9996 12.0515C13.3371 12.0515 11.9858 13.404 11.9858 15.0665C11.9858 16.7278 13.3371 18.079 14.9996 18.079C16.6621 18.079 18.0146 16.7278 18.0146 15.0665C18.0146 13.404 16.6621 12.0515 14.9996 12.0515ZM14.9996 19.954C12.3033 19.954 10.1108 17.7615 10.1108 15.0665C10.1108 12.3703 12.3033 10.1765 14.9996 10.1765C17.6958 10.1765 19.8896 12.3703 19.8896 15.0665C19.8896 17.7615 17.6958 19.954 14.9996 19.954Z" fill="#A3B938"/>
<g id="Group 5">
<mask id="mask0_21_1261" style="mask-type:luminance" maskUnits="userSpaceOnUse" x="2" y="5" width="26" height="21">
<path id="Clip 4" fill-rule="evenodd" clip-rule="evenodd" d="M2.50024 5.00024H27.5001V25.1315H2.50024V5.00024Z" fill="white"/>
</mask>
<g mask="url(#mask0_21_1261)">
<path id="Fill 3" fill-rule="evenodd" clip-rule="evenodd" d="M4.46244 15.0657C6.78744 20.2019 10.7037 23.2557 14.9999 23.2569C19.2962 23.2557 23.2124 20.2019 25.5374 15.0657C23.2124 9.93069 19.2962 6.87694 14.9999 6.87569C10.7049 6.87694 6.78744 9.93069 4.46244 15.0657ZM15.0024 25.1319H14.9974H14.9962C9.82618 25.1282 5.18368 21.5044 2.57618 15.4357C2.47493 15.1994 2.47493 14.9319 2.57618 14.6957C5.18368 8.62819 9.82743 5.00444 14.9962 5.00069C14.9987 4.99944 14.9987 4.99944 14.9999 5.00069C15.0024 4.99944 15.0024 4.99944 15.0037 5.00069C20.1737 5.00444 24.8162 8.62819 27.4237 14.6957C27.5262 14.9319 27.5262 15.1994 27.4237 15.4357C24.8174 21.5044 20.1737 25.1282 15.0037 25.1319H15.0024Z" fill="#A3B938"/>
</g>
</g>
</g>
</g>
</svg>
