<svg width="475" height="10" viewBox="0 0 475 10" fill="none" xmlns="http://www.w3.org/2000/svg">
<path opacity="0.5" d="M473.658 0.0603514C474.177 -0.128608 474.751 0.138905 474.94 0.657858C475.129 1.17681 474.861 1.75069 474.342 1.93965L473.658 0.0603514ZM461.275 5.63336L461.617 6.57301L461.275 5.63336ZM414.07 5.04675L413.741 4.10239L414.07 5.04675ZM408.636 6.93924L408.307 5.99487L408.636 6.93924ZM374.769 4.06076L375.098 5.00512L374.769 4.06076ZM365.604 7.25275L365.275 6.30839L365.604 7.25275ZM334.067 4.77475L334.473 5.68836L334.067 4.77475ZM293.581 5.29233L293.987 6.20595L293.581 5.29233ZM293.114 5.5L292.707 4.58639L293.114 5.5ZM246.948 7.03635L247.283 7.97843L246.948 7.03635ZM213.408 4.98827L213.815 5.90126L213.408 4.98827ZM189.88 4.66678L190.278 3.74918L189.88 4.66678ZM156.195 5.90366L155.768 6.8081L156.195 5.90366ZM119.298 6.02087L118.89 6.93386L119.298 6.02087ZM63.1386 5.3848L62.696 4.4881L63.1386 5.3848ZM44.754 5.37883L44.2986 6.26914L44.754 5.37883ZM1.43853 0.101284L11.4375 4.98031L10.5604 6.77774L0.561468 1.89872L1.43853 0.101284ZM45.2094 4.48853L45.6333 4.70537L44.7226 6.48598L44.2986 6.26914L45.2094 4.48853ZM62.0194 4.82208L62.696 4.4881L63.5813 6.2815L62.9047 6.61548L62.0194 4.82208ZM81.4351 4.24246L83.3328 5.11813L82.4949 6.93412L80.5972 6.05845L81.4351 4.24246ZM117 3.89846L119.706 5.10788L118.89 6.93386L116.184 5.72444L117 3.89846ZM155.28 4.36645L156.622 4.99923L155.768 6.8081L154.427 6.17532L155.28 4.36645ZM190.278 3.74918L193.1 4.97155L192.305 6.80676L189.483 5.58439L190.278 3.74918ZM211.226 4.86769L213 4.07528L213.815 5.90126L212.042 6.69367L211.226 4.86769ZM246.612 6.09428L254.143 3.41326L254.814 5.29741L247.283 7.97843L246.612 6.09428ZM292.707 4.58639L293.174 4.37872L293.987 6.20595L293.521 6.41361L292.707 4.58639ZM331.42 4.85826L333.66 3.86114L334.473 5.68836L332.233 6.68548L331.42 4.85826ZM365.275 6.30839L374.44 3.1164L375.098 5.00512L365.933 8.19712L365.275 6.30839ZM408.307 5.99487L413.741 4.10239L414.399 5.99111L408.965 7.8836L408.307 5.99487ZM460.933 4.69371L473.658 0.0603514L474.342 1.93965L461.617 6.57301L460.933 4.69371ZM437.626 4.48326C445.095 7.33246 453.427 7.4269 460.933 4.69371L461.617 6.57301C453.654 9.47269 444.826 9.37044 436.913 6.35192L437.626 4.48326ZM413.741 4.10239C421.47 1.41037 429.984 1.56818 437.626 4.48326L436.913 6.35192C429.706 3.60277 421.678 3.45592 414.399 5.99111L413.741 4.10239ZM392.186 4.62469C397.121 7.35104 402.983 7.84926 408.307 5.99487L408.965 7.8836C403.104 9.92489 396.651 9.37646 391.219 6.37531L392.186 4.62469ZM374.44 3.1164C380.301 1.0751 386.754 1.62354 392.186 4.62469L391.219 6.37531C386.284 3.64896 380.422 3.15074 375.098 5.00512L374.44 3.1164ZM351.043 4.87764C355.344 7.42972 360.552 7.9533 365.275 6.30839L365.933 8.19712C360.653 10.036 354.831 9.45069 350.023 6.59763L351.043 4.87764ZM333.66 3.86114C339.277 1.36163 345.756 1.74055 351.043 4.87764L350.023 6.59763C345.293 3.79148 339.497 3.45253 334.473 5.68836L333.66 3.86114ZM313.274 4.62931C318.987 7.32143 325.656 7.42314 331.42 4.85826L332.233 6.68548C325.931 9.48986 318.654 9.37543 312.421 6.43851L313.274 4.62931ZM293.174 4.37872C299.567 1.53357 306.95 1.64965 313.274 4.62931L312.421 6.43851C306.617 3.70365 299.842 3.60029 293.987 6.20595L293.174 4.37872ZM273.397 4.36821C279.491 7.24015 286.554 7.32499 292.707 4.58639L293.521 6.41361C286.834 9.38952 279.163 9.29646 272.544 6.17741L273.397 4.36821ZM254.143 3.41326C260.429 1.17528 267.362 1.52474 273.397 4.36821L272.544 6.17741C266.986 3.55841 260.6 3.23723 254.814 5.29741L254.143 3.41326ZM231.373 4.85185C236.04 7.43028 241.589 7.88268 246.612 6.09428L247.283 7.97843C241.72 9.95905 235.575 9.45803 230.406 6.60247L231.373 4.85185ZM213 4.07528C218.906 1.43575 225.71 1.72331 231.373 4.85185L230.406 6.60247C225.292 3.77755 219.149 3.5179 213.815 5.90126L213 4.07528ZM193.1 4.97155C198.889 7.47949 205.466 7.44181 211.226 4.86769L212.042 6.69367C205.77 9.49656 198.609 9.53759 192.305 6.80676L193.1 4.97155ZM172.835 4.5315C178.219 1.60108 184.653 1.31253 190.278 3.74918L189.483 5.58439C184.423 3.39236 178.635 3.65194 173.791 6.28817L172.835 4.5315ZM156.622 4.99923C161.791 7.4378 167.814 7.26405 172.835 4.5315L173.791 6.28817C168.21 9.32565 161.515 9.5188 155.768 6.8081L156.622 4.99923ZM136.431 4.66843C142.327 1.65234 149.29 1.54081 155.28 4.36645L154.427 6.17532C148.997 3.6141 142.686 3.7152 137.341 6.44904L136.431 4.66843ZM119.706 5.10788C125.06 7.50038 131.21 7.3388 136.431 4.66843L137.341 6.44904C131.581 9.39511 124.797 9.57337 118.89 6.93386L119.706 5.10788ZM99.3785 4.58762C104.824 1.62403 111.34 1.3692 117 3.89846L116.184 5.72444C111.093 3.44953 105.232 3.67874 100.335 6.3443L99.3785 4.58762ZM83.3328 5.11813C88.4648 7.48621 94.4142 7.28952 99.3785 4.58762L100.335 6.3443C94.8152 9.34829 88.2007 9.56697 82.4949 6.93412L83.3328 5.11813ZM62.696 4.4881C68.5849 1.58117 75.472 1.49089 81.4351 4.24246L80.5972 6.05845C75.1824 3.55991 68.9286 3.64189 63.5813 6.2815L62.696 4.4881ZM45.6333 4.70537C50.7698 7.33251 56.8461 7.37578 62.0194 4.82208L62.9047 6.61548C57.1643 9.44909 50.422 9.40106 44.7226 6.48598L45.6333 4.70537ZM27.2488 4.67094C32.8426 1.66501 39.5557 1.59683 45.2094 4.48853L44.2986 6.26914C39.2296 3.67649 33.2108 3.73762 28.1955 6.43268L27.2488 4.67094ZM11.4375 4.98031C16.4508 7.42659 22.335 7.31146 27.2488 4.67094L28.1955 6.43268C22.7149 9.37778 16.152 9.50619 10.5604 6.77774L11.4375 4.98031Z" fill="#C9F87C"/>
</svg>
