<svg width="189" height="31" viewBox="0 0 189 31" fill="none" xmlns="http://www.w3.org/2000/svg">
<path d="M40.262 24C40.0887 24 39.9327 23.9393 39.794 23.818C39.6727 23.6967 39.612 23.5407 39.612 23.35V11.13C39.612 10.9393 39.6727 10.7833 39.794 10.662C39.9327 10.5407 40.0887 10.48 40.262 10.48H42.68C42.8707 10.48 43.0267 10.5407 43.148 10.662C43.2693 10.7833 43.33 10.9393 43.33 11.13V12.014C43.694 11.5287 44.1793 11.1127 44.786 10.766C45.41 10.4193 46.1467 10.2373 46.996 10.22C48.9893 10.1853 50.3673 10.948 51.13 12.508C51.5287 11.832 52.1007 11.286 52.846 10.87C53.5913 10.4367 54.4147 10.22 55.316 10.22C56.2173 10.22 57.032 10.428 57.76 10.844C58.488 11.2427 59.0687 11.8667 59.502 12.716C59.9353 13.548 60.152 14.6227 60.152 15.94V23.35C60.152 23.5407 60.0827 23.6967 59.944 23.818C59.8227 23.9393 59.6753 24 59.502 24H56.928C56.7373 24 56.5813 23.9393 56.46 23.818C56.3387 23.6967 56.278 23.5407 56.278 23.35V16.148C56.278 15.4373 56.174 14.8827 55.966 14.484C55.7753 14.0853 55.5067 13.7993 55.16 13.626C54.8307 13.4353 54.458 13.34 54.042 13.34C53.678 13.34 53.3227 13.4353 52.976 13.626C52.6467 13.7993 52.3693 14.0853 52.144 14.484C51.936 14.8827 51.832 15.4373 51.832 16.148V23.35C51.832 23.5407 51.7713 23.6967 51.65 23.818C51.5287 23.9393 51.3813 24 51.208 24H48.634C48.4433 24 48.2873 23.9393 48.166 23.818C48.0447 23.6967 47.984 23.5407 47.984 23.35V16.148C47.984 15.4373 47.88 14.8827 47.672 14.484C47.464 14.0853 47.1867 13.7993 46.84 13.626C46.5107 13.4353 46.1467 13.34 45.748 13.34C45.384 13.34 45.0287 13.4353 44.682 13.626C44.3527 13.7993 44.0753 14.0853 43.85 14.484C43.642 14.8827 43.538 15.4287 43.538 16.122V23.35C43.538 23.5407 43.4773 23.6967 43.356 23.818C43.2347 23.9393 43.0787 24 42.888 24H40.262ZM67.7747 24.26C66.856 24.26 66.0327 24.0867 65.3047 23.74C64.5767 23.376 63.996 22.8907 63.5627 22.284C63.1293 21.6773 62.9127 21.0013 62.9127 20.256C62.9127 19.0253 63.4067 18.0547 64.3947 17.344C65.4 16.6333 66.7173 16.148 68.3467 15.888L71.7527 15.394V14.926C71.7527 14.25 71.5967 13.73 71.2847 13.366C70.9727 13.002 70.4267 12.82 69.6467 12.82C69.0747 12.82 68.6153 12.9327 68.2687 13.158C67.9393 13.3833 67.6793 13.678 67.4887 14.042C67.35 14.2673 67.142 14.38 66.8647 14.38H64.3947C64.204 14.38 64.0567 14.328 63.9527 14.224C63.8487 14.1027 63.8053 13.964 63.8227 13.808C63.8227 13.5133 63.9353 13.1667 64.1607 12.768C64.386 12.3693 64.7327 11.9793 65.2007 11.598C65.6687 11.1993 66.2667 10.87 66.9947 10.61C67.74 10.35 68.6327 10.22 69.6727 10.22C70.7647 10.22 71.7007 10.35 72.4807 10.61C73.2607 10.87 73.8847 11.234 74.3527 11.702C74.838 12.17 75.1847 12.716 75.3927 13.34C75.618 13.9467 75.7307 14.6053 75.7307 15.316V23.35C75.7307 23.5407 75.67 23.6967 75.5487 23.818C75.4273 23.9393 75.28 24 75.1067 24H72.5327C72.3593 24 72.212 23.9393 72.0907 23.818C71.9693 23.6967 71.9087 23.5407 71.9087 23.35V22.388C71.6833 22.7173 71.38 23.0293 70.9987 23.324C70.6173 23.6013 70.158 23.8267 69.6207 24C69.1007 24.1733 68.4853 24.26 67.7747 24.26ZM68.8147 21.556C69.3867 21.556 69.898 21.4347 70.3487 21.192C70.7993 20.9493 71.1547 20.5767 71.4147 20.074C71.6747 19.5713 71.8047 18.9387 71.8047 18.176V17.734L69.3867 18.124C68.468 18.28 67.792 18.514 67.3587 18.826C66.9253 19.138 66.7087 19.5193 66.7087 19.97C66.7087 20.2993 66.804 20.5853 66.9947 20.828C67.2027 21.0533 67.4627 21.2353 67.7747 21.374C68.104 21.4953 68.4507 21.556 68.8147 21.556ZM80.0227 24C79.8494 24 79.6934 23.9393 79.5547 23.818C79.4334 23.6967 79.3727 23.5407 79.3727 23.35V11.13C79.3727 10.9567 79.4334 10.8093 79.5547 10.688C79.6934 10.5493 79.8494 10.48 80.0227 10.48H82.5707C82.7614 10.48 82.9174 10.5493 83.0387 10.688C83.16 10.8093 83.2207 10.9567 83.2207 11.13V12.17C83.654 11.6327 84.1914 11.2167 84.8327 10.922C85.474 10.6273 86.202 10.48 87.0167 10.48H88.1347C88.3254 10.48 88.4814 10.5407 88.6027 10.662C88.724 10.7833 88.7847 10.9393 88.7847 11.13V13.392C88.7847 13.5653 88.724 13.7127 88.6027 13.834C88.4814 13.9553 88.3254 14.016 88.1347 14.016H85.8727C85.0927 14.016 84.486 14.2327 84.0527 14.666C83.6367 15.0993 83.4287 15.6973 83.4287 16.46V23.35C83.4287 23.5407 83.3594 23.6967 83.2207 23.818C83.0994 23.9393 82.952 24 82.7787 24H80.0227ZM91.8929 24C91.7023 24 91.5463 23.9393 91.4249 23.818C91.3036 23.6967 91.2429 23.5407 91.2429 23.35V6.19C91.2429 5.99933 91.3036 5.84333 91.4249 5.722C91.5463 5.60067 91.7023 5.54 91.8929 5.54H94.4409C94.6143 5.54 94.7616 5.60067 94.8829 5.722C95.0216 5.84333 95.0909 5.99933 95.0909 6.19V14.978L99.0689 10.922C99.2076 10.8007 99.3289 10.6967 99.4329 10.61C99.5543 10.5233 99.7363 10.48 99.9789 10.48H102.943C103.099 10.48 103.229 10.5407 103.333 10.662C103.454 10.766 103.515 10.896 103.515 11.052C103.515 11.1213 103.498 11.1993 103.463 11.286C103.428 11.3727 103.368 11.442 103.281 11.494L98.2629 16.538L103.931 23.012C104.07 23.1507 104.139 23.2893 104.139 23.428C104.139 23.584 104.087 23.7227 103.983 23.844C103.879 23.948 103.74 24 103.567 24H100.551C100.291 24 100.1 23.9567 99.9789 23.87C99.8749 23.7833 99.7536 23.6793 99.6149 23.558L95.0909 18.462V23.35C95.0909 23.5407 95.0216 23.6967 94.8829 23.818C94.7616 23.9393 94.6143 24 94.4409 24H91.8929ZM111.938 24.26C109.944 24.26 108.358 23.7053 107.18 22.596C106.018 21.4867 105.403 19.8747 105.334 17.76C105.334 17.6213 105.334 17.4393 105.334 17.214C105.334 16.9713 105.334 16.7893 105.334 16.668C105.403 15.316 105.706 14.1633 106.244 13.21C106.781 12.2393 107.535 11.5027 108.506 11C109.476 10.48 110.612 10.22 111.912 10.22C113.385 10.22 114.607 10.5233 115.578 11.13C116.548 11.7193 117.276 12.534 117.762 13.574C118.264 14.5967 118.516 15.7753 118.516 17.11V17.708C118.516 17.8813 118.455 18.0373 118.334 18.176C118.212 18.2973 118.056 18.358 117.866 18.358H109.39C109.39 18.358 109.39 18.384 109.39 18.436C109.39 18.4707 109.39 18.5053 109.39 18.54C109.407 19.0947 109.511 19.606 109.702 20.074C109.892 20.5247 110.17 20.8887 110.534 21.166C110.915 21.4433 111.374 21.582 111.912 21.582C112.328 21.582 112.674 21.5213 112.952 21.4C113.229 21.2613 113.454 21.114 113.628 20.958C113.818 20.7847 113.957 20.6373 114.044 20.516C114.2 20.3253 114.321 20.2127 114.408 20.178C114.512 20.126 114.659 20.1 114.85 20.1H117.606C117.762 20.1 117.892 20.152 117.996 20.256C118.117 20.36 118.169 20.49 118.152 20.646C118.134 20.9407 117.987 21.296 117.71 21.712C117.45 22.1107 117.06 22.5093 116.54 22.908C116.02 23.2893 115.37 23.61 114.59 23.87C113.827 24.13 112.943 24.26 111.938 24.26ZM109.39 15.966H114.46V15.888C114.46 15.2813 114.356 14.7527 114.148 14.302C113.957 13.834 113.671 13.47 113.29 13.21C112.908 12.95 112.449 12.82 111.912 12.82C111.374 12.82 110.915 12.95 110.534 13.21C110.17 13.47 109.884 13.834 109.676 14.302C109.485 14.7527 109.39 15.2813 109.39 15.888V15.966ZM128.109 24C127.034 24 126.116 23.8267 125.353 23.48C124.608 23.116 124.036 22.5613 123.637 21.816C123.238 21.0707 123.039 20.1347 123.039 19.008V13.548H121.011C120.82 13.548 120.664 13.4873 120.543 13.366C120.422 13.2447 120.361 13.0973 120.361 12.924V11.13C120.361 10.9393 120.422 10.7833 120.543 10.662C120.664 10.5407 120.82 10.48 121.011 10.48H123.039V6.19C123.039 5.99933 123.1 5.84333 123.221 5.722C123.36 5.60067 123.516 5.54 123.689 5.54H126.263C126.436 5.54 126.584 5.60067 126.705 5.722C126.826 5.84333 126.887 5.99933 126.887 6.19V10.48H130.137C130.328 10.48 130.484 10.5407 130.605 10.662C130.726 10.7833 130.787 10.9393 130.787 11.13V12.924C130.787 13.0973 130.726 13.2447 130.605 13.366C130.484 13.4873 130.328 13.548 130.137 13.548H126.887V18.696C126.887 19.3547 127.008 19.8747 127.251 20.256C127.494 20.62 127.901 20.802 128.473 20.802H130.371C130.562 20.802 130.718 20.8627 130.839 20.984C130.96 21.1053 131.021 21.2527 131.021 21.426V23.35C131.021 23.5407 130.96 23.6967 130.839 23.818C130.718 23.9393 130.562 24 130.371 24H128.109ZM134.433 24C134.243 24 134.087 23.9393 133.965 23.818C133.844 23.6967 133.783 23.5407 133.783 23.35V6.19C133.783 5.99933 133.844 5.84333 133.965 5.722C134.087 5.60067 134.243 5.54 134.433 5.54H137.241C137.432 5.54 137.588 5.60067 137.709 5.722C137.831 5.84333 137.891 5.99933 137.891 6.19V12.04C138.342 11.4853 138.905 11.0433 139.581 10.714C140.275 10.3847 141.098 10.22 142.051 10.22C143.074 10.22 143.975 10.454 144.755 10.922C145.553 11.3727 146.168 12.04 146.601 12.924C147.052 13.7907 147.277 14.848 147.277 16.096V23.35C147.277 23.5407 147.217 23.6967 147.095 23.818C146.974 23.9393 146.818 24 146.627 24H143.793C143.62 24 143.473 23.9393 143.351 23.818C143.23 23.6967 143.169 23.5407 143.169 23.35V16.252C143.169 15.3333 142.944 14.6227 142.493 14.12C142.043 13.6 141.401 13.34 140.569 13.34C139.755 13.34 139.105 13.6 138.619 14.12C138.134 14.6227 137.891 15.3333 137.891 16.252V23.35C137.891 23.5407 137.831 23.6967 137.709 23.818C137.588 23.9393 137.432 24 137.241 24H134.433ZM151.533 24C151.36 24 151.204 23.9393 151.065 23.818C150.944 23.6967 150.883 23.5407 150.883 23.35V11.13C150.883 10.9393 150.944 10.7833 151.065 10.662C151.204 10.5407 151.36 10.48 151.533 10.48H154.159C154.332 10.48 154.48 10.5407 154.601 10.662C154.722 10.7833 154.783 10.9393 154.783 11.13V23.35C154.783 23.5407 154.722 23.6967 154.601 23.818C154.48 23.9393 154.332 24 154.159 24H151.533ZM151.455 8.4C151.282 8.4 151.134 8.33933 151.013 8.218C150.892 8.09667 150.831 7.94067 150.831 7.75V5.644C150.831 5.47067 150.892 5.32333 151.013 5.202C151.134 5.06333 151.282 4.994 151.455 4.994H154.211C154.384 4.994 154.532 5.06333 154.653 5.202C154.792 5.32333 154.861 5.47067 154.861 5.644V7.75C154.861 7.94067 154.792 8.09667 154.653 8.218C154.532 8.33933 154.384 8.4 154.211 8.4H151.455ZM159.213 24C159.04 24 158.884 23.9393 158.745 23.818C158.624 23.6967 158.563 23.5407 158.563 23.35V11.13C158.563 10.9393 158.624 10.7833 158.745 10.662C158.884 10.5407 159.04 10.48 159.213 10.48H161.761C161.952 10.48 162.108 10.5407 162.229 10.662C162.35 10.7833 162.411 10.9393 162.411 11.13V12.144C162.862 11.5893 163.442 11.13 164.153 10.766C164.881 10.402 165.748 10.22 166.753 10.22C167.776 10.22 168.677 10.454 169.457 10.922C170.237 11.3727 170.844 12.04 171.277 12.924C171.71 13.7907 171.927 14.848 171.927 16.096V23.35C171.927 23.5407 171.866 23.6967 171.745 23.818C171.624 23.9393 171.468 24 171.277 24H168.521C168.33 24 168.174 23.9393 168.053 23.818C167.932 23.6967 167.871 23.5407 167.871 23.35V16.252C167.871 15.3333 167.646 14.6227 167.195 14.12C166.762 13.6 166.12 13.34 165.271 13.34C164.456 13.34 163.806 13.6 163.321 14.12C162.853 14.6227 162.619 15.3333 162.619 16.252V23.35C162.619 23.5407 162.558 23.6967 162.437 23.818C162.316 23.9393 162.16 24 161.969 24H159.213ZM176.212 24C176.021 24 175.865 23.9393 175.744 23.818C175.623 23.6967 175.562 23.5407 175.562 23.35V6.19C175.562 5.99933 175.623 5.84333 175.744 5.722C175.865 5.60067 176.021 5.54 176.212 5.54H178.76C178.933 5.54 179.081 5.60067 179.202 5.722C179.341 5.84333 179.41 5.99933 179.41 6.19V14.978L183.388 10.922C183.527 10.8007 183.648 10.6967 183.752 10.61C183.873 10.5233 184.055 10.48 184.298 10.48H187.262C187.418 10.48 187.548 10.5407 187.652 10.662C187.773 10.766 187.834 10.896 187.834 11.052C187.834 11.1213 187.817 11.1993 187.782 11.286C187.747 11.3727 187.687 11.442 187.6 11.494L182.582 16.538L188.25 23.012C188.389 23.1507 188.458 23.2893 188.458 23.428C188.458 23.584 188.406 23.7227 188.302 23.844C188.198 23.948 188.059 24 187.886 24H184.87C184.61 24 184.419 23.9567 184.298 23.87C184.194 23.7833 184.073 23.6793 183.934 23.558L179.41 18.462V23.35C179.41 23.5407 179.341 23.6967 179.202 23.818C179.081 23.9393 178.933 24 178.76 24H176.212Z" fill="white"/>
<path d="M21.25 28.5C24.7018 28.5 27.5 25.7018 27.5 22.25C27.5 18.7982 24.7018 16 21.25 16C17.7982 16 15 18.7982 15 22.25C15 25.7018 17.7982 28.5 21.25 28.5Z" fill="#EDFF81"/>
<path d="M23.125 12.25C25.5412 12.25 27.5 10.2912 27.5 7.875C27.5 5.45875 25.5412 3.5 23.125 3.5C20.7088 3.5 18.75 5.45875 18.75 7.875C18.75 10.2912 20.7088 12.25 23.125 12.25Z" fill="white"/>
<path d="M6.9126 28.4625C9.32884 28.4625 11.2876 26.5038 11.2876 24.0875C11.2876 21.6713 9.32884 19.7125 6.9126 19.7125C4.49635 19.7125 2.5376 21.6713 2.5376 24.0875C2.5376 26.5038 4.49635 28.4625 6.9126 28.4625Z" fill="white"/>
<path d="M8.75 16C12.2018 16 15 13.2018 15 9.75C15 6.29822 12.2018 3.5 8.75 3.5C5.29822 3.5 2.5 6.29822 2.5 9.75C2.5 13.2018 5.29822 16 8.75 16Z" fill="#EDFF81"/>
</svg>
