<svg width="30" height="30" viewBox="0 0 30 30" fill="none" xmlns="http://www.w3.org/2000/svg">
<path d="M21.25 27.5C24.7018 27.5 27.5 24.7018 27.5 21.25C27.5 17.7982 24.7018 15 21.25 15C17.7982 15 15 17.7982 15 21.25C15 24.7018 17.7982 27.5 21.25 27.5Z" fill="#EDFF81"/>
<path d="M23.125 11.25C25.5412 11.25 27.5 9.29125 27.5 6.875C27.5 4.45875 25.5412 2.5 23.125 2.5C20.7088 2.5 18.75 4.45875 18.75 6.875C18.75 9.29125 20.7088 11.25 23.125 11.25Z" fill="white"/>
<path d="M6.9126 27.4625C9.32884 27.4625 11.2876 25.5038 11.2876 23.0875C11.2876 20.6713 9.32884 18.7125 6.9126 18.7125C4.49635 18.7125 2.5376 20.6713 2.5376 23.0875C2.5376 25.5038 4.49635 27.4625 6.9126 27.4625Z" fill="white"/>
<path d="M8.75 15C12.2018 15 15 12.2018 15 8.75C15 5.29822 12.2018 2.5 8.75 2.5C5.29822 2.5 2.5 5.29822 2.5 8.75C2.5 12.2018 5.29822 15 8.75 15Z" fill="#EDFF81"/>
</svg>
